PathFileType	4	(X/Y/Z)	/Users/itak/Documents/Research/Walk-IL/dataset/trc/00338_00011.trc
DataRate	CameraRate	NumFrames	NumMarkers	Units	OrigDataRate	OrigDataStartFrame	OrigNumFrames
100.000000	100.000000	4	54	mm	100.000000	286	764
Frame#	Time	RPSI			LPSI			L3			STRN			T10			C7			CLAV			RBAK			LBAK			LSHO			LUPA			LAEL			LAOL			LWTS			LWPS			LFRA			LIFD			LHPS			LHTS			RSHO			RUPA			RAEL			RAOL			RWPS			RFRA			RIFD			RHTS			RHPS			RBHD			LFHD			RFHD			LBHD			LHIP			RHIP			RASI			LASI			LKNE			LTHI			LANK			LTIP			LTOE			LMT1			LMT5			LHEE			RKNE			RTHI			RANK			RTIP			RTOE			RMT5			RHEE			RWTS			RMT1			*53			
		X1	Y1	Z1	X2	Y2	Z2	X3	Y3	Z3	X4	Y4	Z4	X5	Y5	Z5	X6	Y6	Z6	X7	Y7	Z7	X8	Y8	Z8	X9	Y9	Z9	X10	Y10	Z10	X11	Y11	Z11	X12	Y12	Z12	X13	Y13	Z13	X14	Y14	Z14	X15	Y15	Z15	X16	Y16	Z16	X17	Y17	Z17	X18	Y18	Z18	X19	Y19	Z19	X20	Y20	Z20	X21	Y21	Z21	X22	Y22	Z22	X23	Y23	Z23	X24	Y24	Z24	X25	Y25	Z25	X26	Y26	Z26	X27	Y27	Z27	X28	Y28	Z28	X29	Y29	Z29	X30	Y30	Z30	X31	Y31	Z31	X32	Y32	Z32	X33	Y33	Z33	X34	Y34	Z34	X35	Y35	Z35	X36	Y36	Z36	X37	Y37	Z37	X38	Y38	Z38	X39	Y39	Z39	X40	Y40	Z40	X41	Y41	Z41	X42	Y42	Z42	X43	Y43	Z43	X44	Y44	Z44	X45	Y45	Z45	X46	Y46	Z46	X47	Y47	Z47	X48	Y48	Z48	X49	Y49	Z49	X50	Y50	Z50	X51	Y51	Z51	X52	Y52	Z52	X53	Y53	Z53	X54	Y54	Z54	

287	2.86	974.0308837890625	949.0439453125	357.6227722167969	845.51416015625	938.1806030273438	364.9644775390625	921.6937866210938	1001.28173828125	362.7506408691406	874.9574584960938	1178.773071289062	133.3354797363281	927.5180053710938	1119.448852539062	371.9757995605469	899.5281372070312	1366.231689453125	326.9784240722656	873.781982421875	1304.462890625	175.3549499511719	980.6897583007812	1229.9248046875	362.8926391601562	805.9505615234375	1328.55712890625	361.73095703125	730.6553344726562	1337.746704101562	290.4071044921875	681.8380737304688	1220.623901367188	341.731689453125	686.0321655273438	1018.916748046875	369.5511169433594	763.28173828125	1017.876831054688	401.1078491210938	709.4791870117188	760.4345092773438	314.7380676269531	673.2103271484375	759.0459594726562	373.8053894042969	681.5753784179688	913.755859375	379.8975219726562	732.619140625	603.4384155273438	346.9732666015625	688.5405883789062	691.290283203125	390.9001770019531	700.7734375	680.5097045898438	328.8011169433594	1045.2470703125	1357.436767578125	238.9359893798828	1113.271240234375	1298.849365234375	232.5251922607422	1198.919799804688	1055.85302734375	158.0184020996094	1126.494506835938	1018.544799804688	206.5703582763672	1249.135864257812	857.28515625	8.853835105895996	1216.524047851562	1000.698120117188	113.6778793334961	1210.573486328125	712.2039184570312	-81.24625396728516	1203.667724609375	785.7825927734375	-75.01425170898438	1257.782348632812	781.2041625976562	-31.9364070892334	965.9088745117188	1575.211303710938	230.2471771240234	791.0283813476562	1563.004638671875	117.3033752441406	887.5506591796875	1566.932495117188	87.94058227539062	838.7922973632812	1568.410766601562	297.9081726074219	741.4910888671875	876.2047729492188	281.6566772460938	1080.957397460938	890.0866088867188	274.1967468261719	1042.458862304688	913.7337036132812	173.6530456542969	802.1818237304688	903.2239379882812	162.0301971435547	792.2025146484375	438.7179870605469	99.29889678955078	761.8854370117188	564.9896850585938	151.9913482666016	848.4578247070312	31.9029598236084	-12.90253257751465	803.9356079101562	228.5291900634766	50.65246200561523	796.5748291015625	112.8799514770508	-201.2734069824219	866.1275024414062	86.28511047363281	-171.6584777832031	774.5955200195312	65.89284515380859	-107.2908325195312	923.8839111328125	34.85745239257812	-14.30219650268555	1072.681396484375	443.3087463378906	342.1491088867188	1092.516357421875	685.1948852539062	246.3293151855469	1046.931884765625	63.51824569702148	541.0885009765625	1067.094970703125	325.6522827148438	374.8860778808594	1028.203002929688	32.09193420410156	348.3983764648438	1079.891235351562	29.11025428771973	451.5807800292969	991.5646362304688	80.10798645019531	579.8298950195312	1175.875366210938	866.16796875	-11.24592590332031	975.9528198242188	32.80203247070312	393.5745239257812	nan	nan	nan	
288	2.87	972.489990234375	948.0614624023438	347.6674194335938	844.0960083007812	937.0787963867188	355.363525390625	920.2190551757812	1000.077514648438	352.9153747558594	872.939453125	1177.819946289062	124.0547561645508	926.1171264648438	1118.137084960938	362.2093505859375	898.0225830078125	1365.082397460938	318.0486450195312	871.8081665039062	1303.439208984375	166.318115234375	979.1747436523438	1228.68603515625	353.514892578125	804.54052734375	1327.23583984375	353.0275573730469	728.8765258789062	1336.392578125	281.8656005859375	680.657958984375	1218.893432617188	333.127685546875	686.191650390625	1017.113220214844	360.4599609375	763.4358520507812	1016.201049804688	391.6026306152344	711.3507080078125	758.5658569335938	305.9208068847656	674.9491577148438	757.0543823242188	364.9532165527344	682.3856811523438	911.9725952148438	370.7342834472656	736.1740112304688	601.9308471679688	338.7487487792969	691.0493774414062	689.4675903320312	382.2918395996094	703.7286376953125	678.5623779296875	320.3475036621094	1043.536987304688	1356.23486328125	229.5124664306641	1111.452270507812	1297.418701171875	222.9933013916016	1195.87353515625	1053.71142578125	149.3357543945312	1123.259887695312	1017.159606933594	197.9676208496094	1244.62744140625	855.6734619140625	-1.093669414520264	1213.298095703125	998.4885864257812	104.9049224853516	1204.621337890625	712.0321044921875	-92.72865295410156	1198.757934570312	785.9227294921875	-86.02899932861328	1252.553833007812	779.988525390625	-42.65847015380859	964.4334106445312	1574.0849609375	221.5470733642578	788.9590454101562	1562.3955078125	109.4282531738281	885.3897094726562	1566.251098632812	79.58988952636719	837.6270141601562	1567.305053710938	289.7755737304688	740.050048828125	875.2953491210938	272.006591796875	1079.414306640625	888.9924926757812	264.09033203125	1041.094848632812	912.905517578125	163.5724945068359	800.6298828125	902.3345336914062	152.2566680908203	790.6381225585938	438.4743041992188	88.1656494140625	760.3499145507812	565.2197875976562	139.9753570556641	848.9606323242188	30.8738956451416	-18.72894096374512	803.5270385742188	227.1413116455078	42.21062850952148	794.9107055664062	108.3220825195312	-207.4671783447266	864.9700317382812	82.49243927001953	-178.3801574707031	774.0840454101562	62.78280639648438	-112.9274063110352	924.3854370117188	33.88286590576172	-20.92982482910156	1072.018920898438	443.0111083984375	333.6661987304688	1091.409057617188	684.3145141601562	236.9413452148438	1047.775024414062	66.64887237548828	539.7438354492188	1066.98828125	325.9024047851562	368.4311828613281	1028.393310546875	32.12184143066406	348.11767578125	1080.363891601562	29.8080997467041	450.742431640625	992.5999755859375	84.31332397460938	578.2941284179688	1171.559814453125	865.701416015625	-21.30094909667969	976.0946044921875	33.22232055664062	393.2203674316406	nan	nan	nan	
289	2.88	970.96240234375	947.1033935546875	337.4750061035156	842.7001342773438	936.108154296875	345.6028442382812	918.7646484375	998.947998046875	342.9217834472656	870.7118530273438	1177.0390625	114.6320953369141	924.6629638671875	1116.969360351562	352.3703308105469	896.3630981445312	1364.06396484375	309.0326538085938	869.6727905273438	1302.5654296875	157.1812133789062	977.5337524414062	1227.577758789062	344.0158081054688	802.9613037109375	1326.051025390625	344.2104797363281	726.91357421875	1335.19970703125	273.1967163085938	679.2820434570312	1217.333862304688	324.3537292480469	686.0547485351562	1015.491394042969	351.1240234375	763.2571411132812	1014.68994140625	381.9461975097656	712.9451293945312	756.8746337890625	296.7769775390625	676.3497924804688	755.2427978515625	355.7337646484375	682.8882446289062	910.3549194335938	361.2868347167969	739.3734741210938	600.62060546875	330.1674499511719	693.1627197265625	687.8250122070312	373.3070373535156	706.2738647460938	676.8196411132812	311.4994201660156	1041.655517578125	1355.170288085938	219.9800872802734	1109.476318359375	1296.119506835938	213.3723754882812	1192.639404296875	1051.539428710938	141.0629577636719	1119.690795898438	1015.835754394531	189.6468353271484	1239.936645507812	853.9194946289062	-10.50119972229004	1209.910278320312	996.2071533203125	96.62423706054688	1198.433959960938	711.8158569335938	-103.7113037109375	1193.729370117188	786.01513671875	-96.57633972167969	1247.135986328125	778.697998046875	-52.84070587158203	962.7874755859375	1573.071166992188	212.7792816162109	786.75927734375	1561.937377929688	101.4345703125	883.1012573242188	1565.735717773438	71.14810943603516	836.2681274414062	1566.283203125	281.5419616699219	738.4866333007812	874.6864013671875	262.2034301757812	1077.8447265625	887.98486328125	253.7603912353516	1039.524291992188	912.1213989257812	153.240234375	798.8734741210938	901.7579956054688	142.2876129150391	788.7662963867188	438.4965515136719	76.88744354248047	758.4298706054688	565.8167114257812	127.6266708374023	849.802490234375	29.98020362854004	-22.92069053649902	803.2680053710938	225.6549224853516	34.19883346557617	794.1224365234375	102.6881332397461	-212.6231384277344	864.5606689453125	77.55978393554688	-183.7278289794922	774.1901245117188	59.33510971069336	-117.2921524047852	925.1954345703125	32.73400497436523	-25.80821228027344	1071.1689453125	442.7284545898438	324.5554504394531	1090.166137695312	683.4768676757812	227.0431060791016	1048.62060546875	70.11555480957031	538.1373901367188	1066.853393554688	326.2545166015625	361.5289916992188	1028.57275390625	32.19303131103516	347.8450317382812	1080.90771484375	30.63637161254883	449.8153991699219	993.6539306640625	88.95810699462891	576.4359130859375	1167.1376953125	865.2338256835938	-30.92050743103027	976.2804565429688	33.71486282348633	392.7729797363281	nan	nan	nan	
290	2.89	969.4244384765625	946.1520385742188	327.02392578125	841.2803344726562	935.2732543945312	335.6491394042969	917.2982177734375	997.8922119140625	332.7566223144531	868.2920532226562	1176.453125	105.0684509277344	923.1331787109375	1115.932373046875	342.456298828125	894.5496215820312	1363.175170898438	299.9363708496094	867.3909912109375	1301.864379882812	147.9535369873047	975.76123046875	1226.59521484375	334.4165344238281	801.2186279296875	1325.001342773438	335.2849731445312	724.7726440429688	1334.174072265625	264.410888671875	677.7156982421875	1215.954833984375	315.4215393066406	685.6177978515625	1014.061706542969	341.5712280273438	762.7622680664062	1013.362121582031	372.1590881347656	714.19775390625	755.3837890625	287.2934265136719	677.4078979492188	753.6213989257812	346.1502990722656	683.0791015625	908.9073486328125	351.5756225585938	742.1860961914062	599.5087280273438	321.2141723632812	694.8599243164062	686.3666381835938	363.94677734375	708.3515625	675.2938842773438	302.2415161132812	1039.621337890625	1354.252807617188	210.3673858642578	1107.354614257812	1294.953369140625	203.6934356689453	1189.221435546875	1049.35498046875	133.1856994628906	1115.772094726562	1014.552307128906	181.5431365966797	1235.09228515625	852.0502319335938	-19.37346076965332	1206.369384765625	993.894287109375	88.80193328857422	1192.050537109375	711.5540771484375	-114.1698684692383	1188.58642578125	785.9935913085938	-106.5949554443359	1241.553588867188	777.326904296875	-62.47227096557617	960.9727172851562	1572.201904296875	203.9376373291016	784.4344482421875	1561.639404296875	93.31993865966797	880.68359375	1565.399780273438	62.61204147338867	834.7233276367188	1565.379272460938	273.2111206054688	736.778564453125	874.3451538085938	252.204833984375	1076.213623046875	887.0567626953125	243.1675720214844	1037.738403320312	911.3729858398438	142.6616821289062	796.9207763671875	901.4821166992188	132.1049652099609	786.6329956054688	438.7311706542969	65.63385009765625	756.1840209960938	566.634521484375	115.17333984375	850.888427734375	29.41020393371582	-25.88788414001465	803.1276245117188	224.1770172119141	26.48811912536621	794.1251831054688	96.34075164794922	-217.1262969970703	864.796875	71.81224822998047	-188.0444946289062	774.8080444335938	55.86215591430664	-120.7688751220703	926.2053833007812	31.60845375061035	-29.35902786254883	1070.19091796875	442.4803466796875	314.76806640625	1088.789794921875	682.7047729492188	216.5920867919922	1049.473876953125	73.93900299072266	536.1956787109375	1066.714477539062	326.7262573242188	354.1285705566406	1028.749267578125	32.30913925170898	347.6012573242188	1081.543579101562	31.59829330444336	448.797607421875	994.7433471679688	94.08296966552734	574.1729125976562	1162.6416015625	864.7672119140625	-40.11313247680664	976.5291137695312	34.27961349487305	392.2135314941406	nan	nan	nan	
